<?xml version="1.0" standalone="no"?>
<!DOCTYPE svg PUBLIC "-//W3C//DTD SVG 20010904//EN"
 "http://www.w3.org/TR/2001/REC-SVG-20010904/DTD/svg10.dtd">
<svg version="1.0" xmlns="http://www.w3.org/2000/svg"
 width="40" height="41" viewBox="0 0 1200.000000 1315.000000"
 preserveAspectRatio="xMidYMid meet">

<g transform="translate(0.000000,1315.000000) scale(0.100000,-0.100000)"
fill="#000000" stroke="none">
<path d="M5480 13138 c-356 -10 -802 -54 -1073 -106 l-88 -17 -660 -774 -659
-774 0 -474 0 -473 1400 0 1400 0 0 -178 0 -179 -1462 -6 c-805 -4 -1688 -7
-1963 -8 l-500 0 -885 -1040 c-487 -571 -895 -1052 -908 -1068 -42 -53 -73
-363 -73 -726 1 -432 56 -847 186 -1389 175 -734 528 -1203 1032 -1372 193
-65 214 -67 841 -71 l572 -4 0 664 c0 684 5 799 41 962 94 422 359 817 719
1070 215 150 441 245 720 301 77 16 231 18 1680 24 1577 6 1596 6 1680 27 180
45 332 109 464 197 312 208 512 499 609 886 21 84 21 94 25 1580 2 1062 0
1518 -8 1573 -77 542 -495 998 -1095 1196 -382 126 -1216 201 -1995 179z
m-1180 -848 c179 -28 344 -165 411 -340 87 -229 1 -504 -198 -636 -308 -204
-714 -47 -808 312 -44 169 6 367 125 497 123 134 292 194 470 167z"/>
</g>
</svg>
